<?xml version="1.0" ?><svg viewBox="0 0 64 64" xmlns="http://www.w3.org/2000/svg"><defs><style>.cls-1{fill:#0072ff;}</style></defs><title/><g data-name="Layer 2" id="Layer_2"><path class="cls-1" d="M17,57.76a8.75,8.75,0,0,0,4.27-4.13.53.53,0,0,0-.18-.66c-.3-.21-.59-.44-.88-.68l-.51-.45a.52.52,0,0,0-.83.2A5.89,5.89,0,0,1,15,55.45a.52.52,0,0,0-.17.9l1.57,1.32A.53.53,0,0,0,17,57.76Z"/><circle class="cls-1" cx="6.25" cy="52.08" r="1.31"/><circle class="cls-1" cx="11.68" cy="52.07" r="0.37"/><circle class="cls-1" cx="11.68" cy="43.39" r="0.93"/><circle class="cls-1" cx="15.07" cy="48.58" r="0.25"/><path class="cls-1" d="M6.25,41.39H5.75a.42.42,0,0,0-.42.42v.49a.42.42,0,0,1-.42.42H4.42a.42.42,0,0,0-.42.42v.49a.42.42,0,0,0,.42.42h.49a.42.42,0,0,1,.42.42V45a.42.42,0,0,0,.42.42h.49A.42.42,0,0,0,6.67,45v-.49a.42.42,0,0,1,.42-.42h.49A.42.42,0,0,0,8,43.64v-.49a.42.42,0,0,0-.42-.42H7.09a.42.42,0,0,1-.42-.42v-.49A.42.42,0,0,0,6.25,41.39Z"/><path class="cls-1" d="M6.5,58.11a.28.28,0,0,0,0,.4l.23.23a.28.28,0,0,0,.4,0l.23-.23a.28.28,0,0,1,.4,0l.23.23a.28.28,0,0,0,.4,0l.23-.23a.28.28,0,0,0,0-.4l-.23-.23a.28.28,0,0,1,0-.4l.23-.23a.28.28,0,0,0,0-.4l-.23-.23a.28.28,0,0,0-.4,0l-.23.23a.28.28,0,0,1-.4,0l-.23-.23a.28.28,0,0,0-.4,0l-.23.23a.28.28,0,0,0,0,.4l.23.23a.28.28,0,0,1,0,.4Z"/><path class="cls-1" d="M49.15,56.35a.52.52,0,0,0-.17-.9A5.89,5.89,0,0,1,45.16,52a.52.52,0,0,0-.83-.2l-.51.45c-.29.25-.59.47-.88.68a.53.53,0,0,0-.18.66A8.75,8.75,0,0,0,47,57.76a.53.53,0,0,0,.56-.08Z"/><circle class="cls-1" cx="57.77" cy="52.08" r="1.31"/><circle class="cls-1" cx="52.34" cy="52.07" r="0.37"/><circle class="cls-1" cx="52.34" cy="43.39" r="0.93"/><circle class="cls-1" cx="48.96" cy="48.58" r="0.25"/><path class="cls-1" d="M59.6,44.06a.42.42,0,0,0,.42-.42v-.49a.42.42,0,0,0-.42-.42h-.49a.42.42,0,0,1-.42-.42v-.49a.42.42,0,0,0-.42-.42h-.49a.42.42,0,0,0-.42.42v.49a.42.42,0,0,1-.42.42h-.49a.42.42,0,0,0-.42.42v.49a.42.42,0,0,0,.42.42h.49a.42.42,0,0,1,.42.42V45a.42.42,0,0,0,.42.42h.49a.42.42,0,0,0,.42-.42v-.49a.42.42,0,0,1,.42-.42Z"/><path class="cls-1" d="M57.52,57.25a.28.28,0,0,0,0-.4l-.23-.23a.28.28,0,0,0-.4,0l-.23.23a.28.28,0,0,1-.4,0L56,56.62a.28.28,0,0,0-.4,0l-.23.23a.28.28,0,0,0,0,.4l.23.23a.28.28,0,0,1,0,.4l-.23.23a.28.28,0,0,0,0,.4l.23.23a.28.28,0,0,0,.4,0l.23-.23a.28.28,0,0,1,.4,0l.23.23a.28.28,0,0,0,.4,0l.23-.23a.28.28,0,0,0,0-.4l-.23-.23a.28.28,0,0,1,0-.4Z"/><path class="cls-1" d="M29.13,54.91a3.91,3.91,0,0,0,5.54,0L55.54,34A15.31,15.31,0,0,0,55,11.9c-6.1-5.59-15.64-5-21.49.82L31.9,14.37,28,18.23A2.3,2.3,0,0,1,24.79,15l2.81-2.81a1.17,1.17,0,0,0-.19-1.8A15.31,15.31,0,0,0,8,12.64c-5.69,6-5.24,15.9.58,21.72ZM13.37,29.5l-.85.85a1.42,1.42,0,0,1-2.14-.17l-.31-.43a1.42,1.42,0,0,1,.53-2.08l1.07-.53a1.43,1.43,0,0,1,1.8.49v0A1.43,1.43,0,0,1,13.37,29.5ZM8.38,20a11,11,0,0,1,2.69-4.86A11.41,11.41,0,0,1,16.2,12a1.4,1.4,0,0,1,1.75,1.16l.17,1.19a1.41,1.41,0,0,1-1,1.55,7.46,7.46,0,0,0-3.16,2,7,7,0,0,0-1.65,2.9,1.42,1.42,0,0,1-1.53,1l-1.19-.15A1.4,1.4,0,0,1,8.38,20Z"/></g></svg>