<?xml version="1.0" ?><svg data-name="Layer 1" id="Layer_1" viewBox="0 0 64 64" xmlns="http://www.w3.org/2000/svg"><title/><path d="M34,60.64c.11-.1,11.64-10.47,24.69-25.11,5.44-6.11,6.81-14,3.64-21C59.29,7.74,52.87,3.36,46,3.36s-11.35,3-14,6.31c-2.63-3.28-7.1-6.31-14-6.31S4.71,7.74,1.68,14.51c-3.17,7-1.8,14.91,3.64,21C18.37,50.17,29.9,60.54,30,60.64Zm.9-43.9C35.08,16,37.09,9.32,46,9.32c4.48,0,8.87,3.06,10.91,7.63,2.21,4.92,1.24,10.25-2.66,14.62C44.59,42.39,35.8,50.83,32,54.38c-3.8-3.55-12.58-12-22.23-22.81C5.87,27.2,4.9,21.87,7.11,17c2-4.57,6.43-7.64,10.91-7.64,8.88,0,10.89,6.64,11.09,7.42Z" data-name="&lt;Compound Path&gt;" id="_Compound_Path_"/></svg>