<?xml version="1.0" ?><svg style="enable-background:new 0 0 48 48;" version="1.1" viewBox="0 0 48 48" xml:space="preserve" xmlns="http://www.w3.org/2000/svg" xmlns:xlink="http://www.w3.org/1999/xlink"><g id="Icons"><g id="Icons_15_"><g><path d="M25.03766,20.73608v-3.7207c0-0.3799,0.4135-0.6034,0.7263-0.4023l9.3855,5.9218     c0.3017,0.19,0.3017,0.6146,0,0.8045l-5.1844,3.2738l-1.8659,1.1843l-2.3352,1.4749c-0.3129,0.2011-0.7263-0.0335-0.7263-0.4022     v-3.2403v-0.4916" style="fill:#5F83CF;"/><path d="M29.96506,26.61318l-1.8659,1.1843l-2.3352,1.4749c-0.3128,0.2011-0.7263-0.0335-0.7263-0.4022     v-3.2403v-0.4916c-2.5759,0.1057-5.718-0.3578-7.8439,0.6112c-1.9663,0.8963-3.5457,2.5639-4.2666,4.6015     c-0.1282,0.3623-0.2296,0.7341-0.3029,1.1114v-2.9721c0-1.128,0.2449-2.2513,0.7168-3.2759     c0.4588-0.9961,1.1271-1.8927,1.948-2.6196c0.8249-0.7306,1.8013-1.2869,2.8523-1.6189     c1.5111-0.4774,3.1532-0.4118,4.7155-0.3096c0.7252,0.0475,1.4538,0.0698,2.1808,0.0698" style="fill:#5F83CF;"/></g></g></g></svg>